<svg xmlns="http://www.w3.org/2000/svg" width="197.448" height="45" viewBox="0 0 197.448 45">
  <g id="logo-uppersoft" transform="translate(0.001)">
    <path id="Path_3" data-name="Path 3" d="M116.627,105.968a10.736,10.736,0,0,0-3.488-2.526,10.9,10.9,0,0,0-8.42-.168,10,10,0,0,0-2.8,1.8l-.812-2.057H97.05v31.75h5.07v-11a9.274,9.274,0,0,0,2.526,1.672,10.062,10.062,0,0,0,4.09.782,10.5,10.5,0,0,0,4.4-.926,10.651,10.651,0,0,0,3.488-2.532,11.83,11.83,0,0,0,2.3-3.777,13.268,13.268,0,0,0,0-9.238A11.843,11.843,0,0,0,116.627,105.968Zm-10.676,15.253a5.142,5.142,0,0,1-1.967-1.233,5.72,5.72,0,0,1-1.329-2.219,10.285,10.285,0,0,1-.487-3.4,9.461,9.461,0,0,1,.487-3.218,6.219,6.219,0,0,1,1.335-2.219,5.16,5.16,0,0,1,1.961-1.3,7.163,7.163,0,0,1,2.406-.415,5.377,5.377,0,0,1,2.406.541,5.967,5.967,0,0,1,1.973,1.5,7.265,7.265,0,0,1,1.317,2.279,8.42,8.42,0,0,1,0,5.648,7.554,7.554,0,0,1-1.323,2.316,6.093,6.093,0,0,1-1.967,1.54A6.357,6.357,0,0,1,105.951,121.221Z" transform="translate(-69.113 -89.772)" fill="#fff"/>
    <path id="Path_4" data-name="Path 4" d="M158.143,105.968a10.706,10.706,0,0,0-11.909-2.694,9.918,9.918,0,0,0-2.8,1.8l-.806-2.057H138.56v31.75h5.076v-11a9.154,9.154,0,0,0,2.52,1.672,10.1,10.1,0,0,0,4.09.782,10.5,10.5,0,0,0,4.4-.926,10.711,10.711,0,0,0,3.488-2.532,11.764,11.764,0,0,0,2.3-3.777,13.268,13.268,0,0,0,0-9.238A11.885,11.885,0,0,0,158.143,105.968Zm-10.676,15.253a5.142,5.142,0,0,1-1.967-1.233,5.72,5.72,0,0,1-1.329-2.219,10.285,10.285,0,0,1-.487-3.4,9.461,9.461,0,0,1,.487-3.218,6.219,6.219,0,0,1,1.335-2.219,5.16,5.16,0,0,1,1.961-1.3,7.163,7.163,0,0,1,2.406-.415,5.413,5.413,0,0,1,2.406.541,6.237,6.237,0,0,1,1.967,1.5,7.266,7.266,0,0,1,1.317,2.279,8.42,8.42,0,0,1,0,5.648,7.554,7.554,0,0,1-1.323,2.316,6.093,6.093,0,0,1-1.967,1.54A6.3,6.3,0,0,1,147.467,121.221Z" transform="translate(-85.657 -89.772)" fill="#fff"/>
    <path id="Path_5" data-name="Path 5" d="M198.159,105.842a8.859,8.859,0,0,0-3.434-2.52,11.217,11.217,0,0,0-4.282-.812,9.954,9.954,0,0,0-4.27.932,11.042,11.042,0,0,0-3.482,2.526,12.4,12.4,0,0,0-3.23,8.42,11.788,11.788,0,0,0,7.217,10.934,11.584,11.584,0,0,0,4.607.92,13.364,13.364,0,0,0,5.2-.992,12.39,12.39,0,0,0,4.03-2.634l.235-.241-3.224-3.23-.235.241a7.747,7.747,0,0,1-2.448,1.63,7.849,7.849,0,0,1-3.1.6,7.139,7.139,0,0,1-2.346-.391,6.772,6.772,0,0,1-2.015-1.125,7.6,7.6,0,0,1-1.564-1.708,7.367,7.367,0,0,1-.836-1.708H201.22v-.337a21.182,21.182,0,0,0-.8-6.177A12.2,12.2,0,0,0,198.159,105.842Zm-2.442,6.219H184.891a7.927,7.927,0,0,1,.71-1.708,7.074,7.074,0,0,1,1.311-1.66,6.129,6.129,0,0,1,1.654-1.095,5.22,5.22,0,0,1,4,0,5.028,5.028,0,0,1,1.618,1.119,5.287,5.287,0,0,1,1.083,1.66A6.616,6.616,0,0,1,195.717,112.061Z" transform="translate(-101.958 -89.771)" fill="#fff"/>
    <path id="Path_6" data-name="Path 6" d="M233.936,102.937c-3.212-.716-5.611-.505-7.32.421h0a7.308,7.308,0,0,0-2.153,1.744l-.782-2.087h-4.1v22.644H224.7l.048-13.376a4.384,4.384,0,0,1,.451-1.943,5.13,5.13,0,0,1,1.2-1.618,6.11,6.11,0,0,1,1.87-1.107,6.615,6.615,0,0,1,2.364-.415,2.815,2.815,0,0,1,.7.078c.235.06.445.12.6.168l.992.427,1.341-4.884Z" transform="translate(-117.948 -89.771)" fill="#fff"/>
    <path id="Path_7" data-name="Path 7" d="M306.484,105.969h0a11.487,11.487,0,0,0-3.609-2.526,11.115,11.115,0,0,0-8.835,0,11.572,11.572,0,0,0-3.609,2.526,12.335,12.335,0,0,0,0,16.81,11.554,11.554,0,0,0,3.609,2.532,10.826,10.826,0,0,0,4.427.92,10.947,10.947,0,0,0,4.409-.92,11.428,11.428,0,0,0,3.609-2.532,12.263,12.263,0,0,0,0-16.81Zm-1.883,8.384a8.173,8.173,0,0,1-.487,2.833,7.584,7.584,0,0,1-1.323,2.322,6.128,6.128,0,0,1-1.967,1.546,5.3,5.3,0,0,1-4.775,0,6.424,6.424,0,0,1-1.991-1.552,7.423,7.423,0,0,1-1.341-2.316,8.481,8.481,0,0,1,0-5.666,7.043,7.043,0,0,1,1.335-2.285,6.616,6.616,0,0,1,2-1.534,5.275,5.275,0,0,1,4.775,0,6.243,6.243,0,0,1,1.967,1.528,7.271,7.271,0,0,1,1.323,2.291A8.174,8.174,0,0,1,304.6,114.353Z" transform="translate(-144.871 -89.778)" fill="#fff"/>
    <path id="Path_8" data-name="Path 8" d="M334.511,84.448a6.815,6.815,0,0,0-2.49,1.708,8.192,8.192,0,0,0-1.7,2.941,12.738,12.738,0,0,0-.6,4.174v2.406l-3.783.914V100.2h3.765v18.043h5.124V100.2h6.784V95.587h-6.784V92.58a5.078,5.078,0,0,1,.944-3.446c1.022-1.143,2.694-1.371,5.413-.547l.433.126V84.785l-.211-.084A9.274,9.274,0,0,0,334.511,84.448Z" transform="translate(-160.339 -82.355)" fill="#fff"/>
    <path id="Path_9" data-name="Path 9" d="M369.408,104.057V99.444H363.46V93.58h-5.118v5.96l-3.242.908v3.609h3.218v10.826a10.224,10.224,0,0,0,.962,4.866,5.491,5.491,0,0,0,2.538,2.484,6.694,6.694,0,0,0,2.827.6h.638a15.529,15.529,0,0,0,3.807-.794l.295-.1-1.034-3.843-.289.036c-1.69.229-2.977.283-3.693-.1a1.467,1.467,0,0,1-.7-.794,4.733,4.733,0,0,1-.229-1.624v-11.56Z" transform="translate(-171.961 -86.212)" fill="#fff"/>
    <path id="Path_10" data-name="Path 10" d="M268.567,117.213a7.3,7.3,0,0,0,.866-3.47,7.386,7.386,0,0,0-.511-2.8,5.871,5.871,0,0,0-1.762-2.273,13.057,13.057,0,0,0-3.374-1.919,36.977,36.977,0,0,0-5.341-1.642c-.487-.114-1.022-.259-1.594-.409a8.119,8.119,0,0,1-1.606-.6,4.366,4.366,0,0,1-1.287-.992,2.189,2.189,0,0,1-.541-1.492,2.279,2.279,0,0,1,.481-1.425,4.36,4.36,0,0,1,1.161-1.028,5.334,5.334,0,0,1,1.492-.6,6.236,6.236,0,0,1,1.552-.211,5.509,5.509,0,0,1,3.422.968,4.439,4.439,0,0,1,1.6,2.31l5.07-1.2a7.17,7.17,0,0,0-1.2-2.737,9.155,9.155,0,0,0-2.285-2.2,12.137,12.137,0,0,0-10.6-1.305,11.144,11.144,0,0,0-3.3,1.8,9.124,9.124,0,0,0-2.231,2.616,6.315,6.315,0,0,0-.83,3.152,6.141,6.141,0,0,0,.746,3.091,7.488,7.488,0,0,0,2.039,2.261,13.069,13.069,0,0,0,3.049,1.63,28.59,28.59,0,0,0,3.759,1.143c.463.114,1.041.247,1.8.415a11.342,11.342,0,0,1,2.123.68A6.3,6.3,0,0,1,263,112.082a2.231,2.231,0,0,1,.74,1.684,2.406,2.406,0,0,1-.451,1.425,6.063,6.063,0,0,1-1,1.077h0a6.526,6.526,0,0,1-4.156,1.323,8.089,8.089,0,0,1-3.524-.746,5.612,5.612,0,0,1-2.5-2.755l-4.781,2.087a8.859,8.859,0,0,0,3.885,4.631,12.552,12.552,0,0,0,6.652,1.8,15.638,15.638,0,0,0,4.613-.668,11.668,11.668,0,0,0,3.663-1.864A8.823,8.823,0,0,0,268.567,117.213Z" transform="translate(-129.008 -86.184)" fill="#fff"/>
    <path id="Path_11" data-name="Path 11" d="M75.018,81.33l-5.455,2.887v21.159a6.989,6.989,0,0,1-.529,2.676,7.44,7.44,0,0,1-1.443,2.261,6.856,6.856,0,0,1-2.141,1.558,6.327,6.327,0,0,1-5.233,0,6.616,6.616,0,0,1-2.159-1.558,7.422,7.422,0,0,1-1.449-2.261,6.983,6.983,0,0,1-.523-2.676V91.356l-5.485,2.9V105.4a11.981,11.981,0,0,0,.968,4.812,12.63,12.63,0,0,0,2.616,3.909,12.158,12.158,0,0,0,17.279-.042,12.63,12.63,0,0,0,2.616-3.909,11.981,11.981,0,0,0,.974-4.812Z" transform="translate(-50.6 -81.33)" fill="#fff"/>
  </g>
</svg>
